# Blender v2.93.1 OBJ File: ''
# www.blender.org
mtllib calibration.mtl
o Cube
v 0.200000 0.200000 0.200000
v 0.200000 0.200000 -0.200000
v 0.200000 -0.200000 0.200000
v 0.200000 -0.200000 -0.200000
v -0.200000 0.200000 0.200000
v -0.200000 0.200000 -0.200000
v -0.200000 -0.200000 0.200000
v -0.200000 -0.200000 -0.200000
vt 0.979803 0.017905
vt 1.947341 0.017905
vt 1.947341 0.985443
vt 0.979803 0.985443
vt 0.012266 0.985443
vt 0.979803 1.952980
vt 0.012266 1.952980
vt 0.012266 -1.917169
vt 0.979803 -1.917169
vt 0.979803 -0.949632
vt 0.012266 -0.949632
vt -0.955271 0.017905
vt 0.012266 0.017905
vt -0.955271 0.985443
vn 0.0000 0.0000 1.0000
vn 0.0000 -1.0000 0.0000
vn -1.0000 0.0000 0.0000
vn 0.0000 0.0000 -1.0000
vn 1.0000 0.0000 0.0000
vn 0.0000 1.0000 0.0000
usemtl Material
s off
f 1/1/1 5/2/1 7/3/1 3/4/1
f 4/5/2 3/4/2 7/6/2 8/7/2
f 8/8/3 7/9/3 5/10/3 6/11/3
f 6/12/4 2/13/4 4/5/4 8/14/4
f 2/13/5 1/1/5 3/4/5 4/5/5
f 6/11/6 5/10/6 1/1/6 2/13/6
